<?xml version="1.0" encoding="UTF-8"?>
<!DOCTYPE svg PUBLIC "-//W3C//DTD SVG 1.1//EN" "http://www.w3.org/Graphics/SVG/1.1/DTD/svg11.dtd">
<!-- Creator: CorelDRAW 2017 -->
<svg xmlns="http://www.w3.org/2000/svg" xml:space="preserve" width="200mm" height="122mm" version="1.1" style="shape-rendering:geometricPrecision; text-rendering:geometricPrecision; image-rendering:optimizeQuality; fill-rule:evenodd; clip-rule:evenodd"
viewBox="0 0 20000 12200"
 xmlns:xlink="http://www.w3.org/1999/xlink">
 <defs>
  <style type="text/css">
   <![CDATA[
    .str0 {stroke:#D40B12;stroke-width:35.27;stroke-miterlimit:2.61313}
    .fil9 {fill:none}
    .fil10 {fill:#393185}
    .fil5 {fill:#2F2E41}
    .fil1 {fill:#3F3D56}
    .fil4 {fill:#6C63FF}
    .fil7 {fill:#D40B12}
    .fil0 {fill:#F2F2F2}
    .fil2 {fill:#FFB6B6}
    .fil6 {fill:white}
    .fil8 {fill:#D40B12;fill-rule:nonzero}
    .fil3 {fill:black;fill-opacity:0.101961}
    .fnt0 {font-weight:900;font-size:776.11px;font-family:'Illuma Black'}
   ]]>
  </style>
 </defs>
 <g id="Layer_x0020_1">
  <metadata id="CorelCorpID_0Corel-Layer"/>
  <g id="_1819419943952">
   <path class="fil0" d="M16421.3 1019.14l-15922.35 0c22.49,-127.53 66.41,-248.18 127.79,-357.45 196.06,-349.25 569.91,-585.79 998.27,-585.79l13670.22 0c428.1,0 802.22,236.54 998.01,585.79 61.38,109.27 105.57,229.92 128.06,357.45z"/>
   <path class="fil1" d="M19518.77 12080.04c0,17.46 -14.02,31.49 -31.49,31.49l-6542.88 -0.01c-17.46,0 -31.49,-14.02 -31.49,-31.49 0,-8.47 3.18,-15.88 8.47,-21.43l2373.85 0.01c50.53,0 100.01,-3.44 148.7,-10.05l4043.36 -0.01c17.46,0 31.49,14.02 31.49,31.49l-0.01 0z"/>
   <path class="fil1" d="M16421.3 1019.14c-22.49,-127.53 -66.68,-248.18 -128.06,-357.45 -195.79,-349.25 -569.91,-585.79 -998.01,-585.79l-13670.22 0c-428.36,0 -802.21,236.54 -998.27,585.79 -61.38,109.27 -105.3,229.92 -127.79,357.45 -11.64,65.09 -17.73,132.03 -17.73,200.55l0 9748.04c0,630.77 513.03,1143.79 1143.79,1143.79l13670.22 0c130.7,0 256.65,-22.23 373.86,-62.97 447.67,-155.05 769.94,-581.03 769.94,-1080.82l-0.01 -9748.03c0,-68.26 -6.08,-135.47 -17.73,-200.55l0.01 -0.01zm-35.19 9948.59c0,551.92 -410.1,1008.33 -942.18,1080.82 -48.68,6.61 -98.16,10.05 -148.7,10.05l-12045.41 0.01c-1499.92,0 -2715.68,-1216.03 -2715.68,-2715.94l-0.01 -8122.97c0,-68.53 6.35,-135.47 18.52,-200.55 23.81,-128.59 70.12,-248.97 134.94,-357.45 190.24,-319.1 538.96,-532.88 937.42,-532.88l13670.22 0c398.46,0 747.18,213.78 937.42,532.87 64.82,108.48 111.13,228.86 134.94,357.45 12.17,65.09 18.52,132.03 18.52,200.55l0 9748.04z"/>
   <g>
    <polygon class="fil2" points="15719.25,5793.01 15629.72,5464.72 16032.62,5315.5 16077.38,5613.94 "/>
    <polygon class="fil3" points="15719.25,5793.01 15629.72,5464.72 15866.99,5364.64 15793.28,5751.66 " isolation="isolate"/>
    <g>
     <path class="fil2" d="M14539.83 8606.53c-76.95,-45.79 -81.01,-180.93 -9.06,-301.86 31.5,-52.94 72.34,-94.37 114.76,-120.39l42.25 -69.03 534.51 -958.22c0,0 233.98,-903.72 329.23,-1012.99 95.26,-109.27 232.98,-83.52 232.98,-83.52l122.16 108.51 -436.01 1279.99 -538.05 757.72 -72.11 105.45c-2.63,49.69 -19.55,105.35 -51.05,158.29 -71.95,120.93 -192.66,181.85 -269.61,136.06l0 0 0 -0.01z"/>
     <path class="fil4" d="M15697.22 5699.24c0,0 170.01,-6.57 277.28,125.49 107.27,132.06 -454.68,1620.54 -454.68,1620.54l-457.72 -16.2 635.12 -1729.83 0 0z"/>
    </g>
    <circle class="fil2" cx="15741.64" cy="5099.13" r="417.82"/>
    <polygon class="fil2" points="14764.24,11164.94 14480.72,11866.28 14316.58,11702.14 14256.89,11388.78 14495.64,11090.33 "/>
    <polygon class="fil2" points="17420.37,10911.27 17703.89,11239.55 17569.59,11508.15 17271.15,11463.39 17121.93,11045.57 "/>
    <polygon class="fil2" points="15532.73,6994.24 15495.42,7598.58 16420.59,7434.44 16360.9,7061.38 "/>
    <path class="fil5" d="M15487.96 7606.04l932.63 -305.9c0,0 343.21,686.42 -29.84,1119.16 -373.05,432.74 -1611.58,2894.87 -1611.58,2894.87l-373.05 -179.07 537.19 -1566.82 596.88 -1447.43 -52.23 -514.81 0 0z"/>
    <polygon class="fil5" points="16390.75,8165.62 16748.88,9732.43 17494.98,10941.11 17107.01,11164.94 16062.46,9732.43 15719.25,8628.2 "/>
    <path class="fil5" d="M14122.59 11329.09l-258.43 0c0,0 -301.56,-119.38 -372.23,0 -70.67,119.38 315.33,457.94 315.33,457.94 0,0 539.16,303.08 613.77,288.16 74.61,-14.92 104.45,-193.99 104.45,-193.99l89.53 -208.91 -134.3 44.77c0,0 -179.07,-104.45 -134.3,-283.52l-223.83 -104.45 0.01 0z"/>
    <path class="fil5" d="M17644.2 11284.32l0 -149.22 173.48 149.22c0,0 289.1,104.45 65.27,328.29 -223.83,223.83 -507.35,462.58 -507.35,462.58 0,0 -447.66,119.38 -477.51,-14.92 -29.85,-134.3 0,-188.64 0,-188.64l164.14 -79.96 149.22 -387.97 238.75 29.84 193.99 -149.22 0 0 0.01 0z"/>
    <path class="fil5" d="M15868.47 5181.2l-134.3 -14.92 -246.21 -246.21c0,0 -223.83,119.38 -223.83,29.84 0,-417.82 253.67,-402.9 462.58,-432.74 208.91,-29.84 186.53,-37.31 253.67,74.61 30.71,51.18 141.76,82.07 141.76,82.07 0,0 208.91,-283.52 313.36,59.69 104.45,343.21 -29.84,1402.67 74.61,1492.21 104.45,89.53 -428.89,178.93 -371.13,-171.67 57.76,-350.6 162.22,-887.8 102.53,-1007.17 -59.69,-119.38 -74.61,-89.53 -74.61,-89.53 73.97,-30.2 122.3,501.77 -156.6,527.81l-7.55 -259.21c0,0 -44.77,-134.3 -134.3,-44.77l0 0 0.02 -0.01z"/>
    <path class="fil4" d="M15681.95 5696.01l447.66 -179.06 596.88 1790.65 -1228.09 -44.73 -110.58 -534.45c0,0 -107.96,-278.16 -18.43,-442.3 89.53,-164.14 312.55,-590.09 312.55,-590.09l0 0 0.01 -0.02z"/>
    <g>
     <path class="fil2" d="M16846.84 8695.58c-89.22,7.66 -171.3,-99.78 -183.34,-239.98 -5.27,-61.37 3.76,-118.84 23.05,-164.71l-5.92 -80.72 -124.34 -1090.15c0,0 -231.47,-891.73 -217.77,-1036.04 13.69,-144.31 35.32,-182.62 35.32,-182.62l162.51 16.94 391.96 1294.16 4.58 929.31 2.89 127.71c26.84,41.91 45.53,97 50.8,158.37 12.04,140.2 -50.52,260.06 -139.74,267.73l0 0z"/>
     <path class="fil4" d="M16092.31 5658.71c0,0 134.3,-104.45 298.44,-59.69 164.14,44.76 575.32,1581.74 575.32,1581.74l-381.33 253.67 -492.43 -1775.73 0 0.01z"/>
    </g>
   </g>
   <path class="fil6" d="M11360.69 642l-5695.3 0c-52.93,0 -95.99,-43.06 -95.99,-95.99 0,-52.93 43.06,-95.99 95.99,-95.99l5695.3 0c52.93,0 95.99,43.06 95.99,95.99 0,52.93 -43.06,95.99 -95.99,95.99l0 0z"/>
   <g>
    <path class="fil7" d="M2169.61 1651.61c548.11,-183.11 1392.78,-198.6 1955.59,-63.23 0,0 789.81,135.13 912.19,546.7 0,0 107.24,282.65 -440.32,529.34 0,0 -321.51,158.9 -1005.55,226.87 0,0 -608.13,34.71 -1054.76,-54.55 0,0 -623.26,-111.57 -874.34,-347.11 0,0 309.11,177.27 828.92,247.94 0,0 653.55,74.38 1091.35,14.87 0,0 594.24,-70.66 948.77,-254.13 0,0 201.87,-109.09 253.6,-261.57 0,0 64.34,-168.6 -135,-321.08 0,0 -260.23,-245.49 -957.61,-327.28 0,0 -647.24,-119 -1522.84,63.23z"/>
    <path class="fil8" d="M1346.2 2104.99l0 215.43c0,42.34 2.32,68.88 7.12,79.81 4.62,10.92 12.98,19.7 25.07,26.34 11.92,6.44 33.97,9.76 65.98,9.76l0 19.9 -359.58 0 0 -19.9c32.72,0 54.95,-3.32 66.51,-10.15 11.74,-6.64 19.91,-15.42 24.54,-26.15 4.8,-10.73 7.11,-37.27 7.11,-79.61l0 -504.61c0,-42.34 -2.31,-68.88 -7.11,-79.81 -4.63,-10.93 -12.8,-19.7 -24.72,-26.34 -11.92,-6.44 -33.96,-9.76 -66.33,-9.76l0 -19.9 308.36 0c101.55,0 174.46,19.9 218.56,59.52 44.28,39.8 66.33,89.37 66.33,148.88 0,50.54 -14.22,93.66 -42.86,129.56 -28.45,35.91 -67.75,60.3 -117.9,73.38 -33.61,9.16 -90.69,13.65 -171.08,13.65zm0 -380.5l0 336.01c11.56,0.78 20.28,1.17 26.15,1.17 42.5,0 75.4,-13.85 98.34,-41.56 22.94,-27.71 34.5,-70.63 34.5,-128.78 0,-57.76 -11.56,-99.91 -34.5,-126.64 -22.94,-26.74 -57.44,-40.2 -102.97,-40.2l-21.52 0zm812.88 444.9l-267.81 0c3.19,70.83 20.45,126.83 51.74,168 24.01,31.61 52.82,47.42 86.61,47.42 20.99,0 39.83,-6.44 56.91,-19.12 17.07,-12.69 35.38,-35.71 54.77,-68.69l17.78 12.88c-26.32,58.73 -55.66,100.49 -87.49,124.88 -32.01,24.4 -69,36.69 -111.15,36.69 -72.2,0 -126.97,-30.44 -164.14,-91.32 -29.87,-48.98 -44.81,-109.86 -44.81,-182.64 0,-88.98 22.05,-159.82 65.97,-212.5 43.93,-52.69 95.5,-79.03 154.54,-79.03 49.26,0 92.12,22.05 128.39,66.34 36.29,44.3 55.85,110.06 58.69,197.09zm-128.04 -37.47c0,-61.27 -3.02,-103.42 -9.07,-126.25 -6.22,-22.83 -15.65,-40.19 -28.45,-51.9 -7.29,-6.83 -17.07,-10.34 -29.34,-10.34 -17.97,0 -32.72,9.75 -44.29,29.07 -20.45,33.95 -30.76,80.39 -30.76,139.52l0 19.9 141.91 0zm500.78 -203.71l163.79 0 0 63.22 -92.83 0c17.07,18.53 28.81,35.51 35.56,50.73 8.36,20.49 12.45,41.96 12.45,64.39 0,38.05 -9.6,71.03 -28.98,98.93 -19.21,27.91 -45.35,49.76 -78.6,65.57 -33.08,15.81 -62.6,23.61 -88.21,23.61 -2.14,0 -22.94,-0.98 -62.42,-2.93 -15.83,0 -28.99,5.66 -39.48,16.98 -10.67,11.32 -16.01,24.98 -16.01,40.59 0,13.85 4.8,25.17 14.41,33.95 9.6,8.78 25.07,13.27 46.77,13.27l90.34 -1.17c73.27,0 123.59,8.78 151.16,26.34 39.3,24.39 59.04,61.86 59.04,112.59 0,32.39 -9.07,61.86 -27.21,88.2 -17.96,26.54 -41.79,46.05 -71.49,58.54 -44.82,18.73 -96.39,28.1 -154.89,28.1 -43.75,0 -83.76,-4.69 -120.04,-14.05 -36.1,-9.17 -62.07,-22.25 -77.71,-38.64 -15.65,-16.58 -23.48,-33.95 -23.48,-52.29 0,-17.37 6.05,-33.18 17.96,-47.03 11.92,-13.85 34.32,-25.56 66.87,-34.93 -45.17,-24.58 -67.76,-58.73 -67.76,-102.25 0,-26.54 9.25,-52.1 27.57,-76.88 18.32,-24.97 47.48,-46.63 87.31,-64.98 -46.41,-18.53 -80.02,-43.12 -100.83,-73.56 -20.8,-30.44 -31.12,-65.76 -31.12,-105.57 0,-52.29 19.38,-97.36 58.33,-135.61 38.77,-38.25 88.74,-57.37 149.74,-57.37 32.18,0 65.44,7.42 99.76,22.25zm-89.98 14.05c-20.1,0 -36.99,11.12 -50.86,33.36 -13.88,22.25 -20.81,68.3 -20.81,138.15 0,56.59 6.76,95.42 20.45,116.5 13.69,21.07 30.06,31.61 48.73,31.61 20.8,0 38.06,-10.54 51.93,-31.42 13.87,-20.88 20.8,-61.46 20.8,-121.76 0,-68.1 -7.82,-114.35 -23.47,-139.13 -11.03,-18.14 -26.68,-27.31 -46.77,-27.31zm-30.23 593.58c-35.39,0 -58.87,3.12 -70.43,9.76 -19.74,11.71 -29.7,27.51 -29.7,47.61 0,19.32 10.32,36.88 30.77,52.49 20.45,15.8 59.04,23.61 115.77,23.61 48.37,0 86.25,-7.02 113.99,-21.08 27.57,-13.85 41.44,-33.56 41.44,-58.92 0,-9.56 -2.67,-17.57 -7.83,-24 -9.42,-11.32 -23.47,-19.13 -42.5,-23.22 -19.03,-4.1 -69.53,-6.25 -151.51,-6.25zm610.5 -159.23c-59.4,57.76 -112.92,86.64 -160.05,86.64 -27.92,0 -51.04,-9.95 -69.53,-30.05 -18.32,-19.9 -27.57,-45.07 -27.57,-75.12 0,-40.78 16.01,-77.47 48.02,-110.06 32.01,-32.58 101.72,-75.9 209.13,-129.95l0 -53.66c0,-40.2 -1.95,-65.57 -6.05,-76.1 -3.91,-10.35 -11.56,-19.52 -22.76,-27.32 -11.2,-7.81 -23.83,-11.71 -37.7,-11.71 -22.76,0 -41.44,5.46 -56.02,16.59 -9.06,6.83 -13.51,14.83 -13.51,24 0,8 4.8,17.75 14.58,29.66 13.16,16.39 19.74,32.19 19.74,47.41 0,18.54 -6.23,34.54 -19.03,47.62 -12.62,13.07 -29.16,19.7 -49.61,19.7 -21.88,0 -40.19,-7.22 -54.95,-21.66 -14.76,-14.44 -22.23,-31.41 -22.23,-50.73 0,-27.51 9.95,-53.66 29.7,-78.64 19.91,-24.78 47.48,-43.9 82.86,-57.37 35.57,-13.27 72.38,-19.9 110.62,-19.9 46.24,0 82.87,10.73 109.72,32.2 27.03,21.46 44.46,44.68 52.46,69.85 4.8,16 7.29,52.69 7.29,110.06l0 207.03c0,24.2 0.89,39.61 2.67,45.86 1.78,6.24 4.27,10.92 7.83,14.05 3.55,2.92 7.47,4.48 11.91,4.48 9.25,0 18.5,-6.83 28.1,-20.49l15.65 13.27c-17.43,28.3 -35.39,48.98 -54.06,61.67 -18.5,12.87 -39.66,19.31 -63.31,19.31 -27.74,0 -49.62,-7.22 -65.27,-21.46 -15.65,-14.44 -25.07,-36.1 -28.63,-65.18zm0 -42.14l0 -177.96c-41.97,27.12 -73.27,56 -93.89,86.83 -13.52,20.49 -20.28,41.37 -20.28,62.25 0,17.56 5.69,32.98 17.25,46.24 8.72,10.35 20.81,15.42 36.46,15.42 17.43,0 37.52,-10.93 60.46,-32.78zm571.91 -427.34l7.47 182.64 -18.13 0c-20.99,-54.05 -42.69,-90.93 -65.27,-110.83 -22.41,-19.71 -44.81,-29.66 -67.22,-29.66 -14.05,0 -26.14,5.27 -36.1,15.61 -9.96,10.54 -14.94,22.63 -14.94,36.29 0,10.15 3.38,20.1 10.32,29.66 11.02,15.61 41.96,42.15 92.64,80.01 50.87,37.85 84.12,70.05 100.31,96.39 16,26.35 24,56 24,88.59 0,29.66 -6.76,58.74 -20.27,87.22 -13.34,28.49 -32.37,50.35 -56.91,65.57 -24.54,15.22 -51.57,22.83 -81.27,22.83 -23.11,0 -54.06,-8 -92.65,-24.2 -10.49,-4.1 -17.43,-6.24 -21.34,-6.24 -11.38,0 -20.81,9.75 -28.45,29.27l-18.14 0 -8.54 -192.01 18.14 0c15.47,49.95 36.82,87.42 64.02,112.39 27.03,24.98 52.64,37.47 76.83,37.47 16.71,0 30.23,-5.66 40.72,-16.78 10.49,-11.32 15.83,-24.78 15.83,-40.79 0,-18.34 -5.16,-33.95 -15.47,-47.41 -10.5,-13.27 -33.61,-33.37 -69.54,-60.3 -52.99,-40.39 -87.13,-71.02 -102.79,-92.29 -22.76,-31.22 -34.14,-65.57 -34.14,-103.23 0,-41.17 12.8,-78.24 38.59,-111.42 25.79,-33.36 63.13,-49.95 111.86,-49.95 26.32,0 51.75,7.22 76.29,21.66 9.25,5.85 16.89,8.78 22.76,8.78 6.23,0 11.38,-1.56 15.12,-4.49 3.73,-2.92 9.78,-11.12 18.14,-24.78l18.13 0zm578.5 14.05l0 419.14c0,40.98 3.38,66.54 10.31,76.69 6.94,10.14 20.99,16.58 41.97,19.32l0 19.9 -198.46 0 0 -71.42c-23.3,30.44 -46.59,52.49 -69.89,66.15 -23.29,13.66 -49.26,20.49 -78.25,20.49 -27.38,0 -51.75,-9.17 -73.26,-27.71 -21.34,-18.54 -35.57,-40.2 -42.86,-64.78 -7.29,-24.78 -11.03,-68.11 -11.03,-129.77l0 -212.1c0,-40.78 -3.37,-66.35 -10.13,-76.3 -6.76,-10.15 -20.81,-16.58 -42.15,-19.71l0 -19.9 198.46 0 0 365.48c0,38.05 1.6,62.64 4.98,73.76 3.2,11.12 8.54,19.51 15.65,25.17 7.11,5.66 15.3,8.59 24.72,8.59 12.45,0 23.65,-3.71 33.79,-10.93 13.87,-9.95 30.59,-29.86 49.97,-60.1l0 -286.06c0,-40.78 -3.38,-66.35 -10.13,-76.3 -6.76,-10.15 -20.81,-16.58 -42.15,-19.71l0 -19.9 198.46 0zm430.18 -14.05l7.47 182.64 -18.14 0c-20.99,-54.05 -42.68,-90.93 -65.26,-110.83 -22.41,-19.71 -44.82,-29.66 -67.23,-29.66 -14.04,0 -26.14,5.27 -36.1,15.61 -9.96,10.54 -14.94,22.63 -14.94,36.29 0,10.15 3.38,20.1 10.32,29.66 11.03,15.61 41.97,42.15 92.65,80.01 50.86,37.85 84.12,70.05 100.3,96.39 16.01,26.35 24.01,56 24.01,88.59 0,29.66 -6.76,58.74 -20.28,87.22 -13.33,28.49 -32.36,50.35 -56.9,65.57 -24.54,15.22 -51.58,22.83 -81.27,22.83 -23.12,0 -54.06,-8 -92.65,-24.2 -10.5,-4.1 -17.43,-6.24 -21.34,-6.24 -11.39,0 -20.81,9.75 -28.46,29.27l-18.14 0 -8.53 -192.01 18.14 0c15.47,49.95 36.81,87.42 64.02,112.39 27.03,24.98 52.64,37.47 76.82,37.47 16.72,0 30.23,-5.66 40.72,-16.78 10.5,-11.32 15.83,-24.78 15.83,-40.79 0,-18.34 -5.16,-33.95 -15.47,-47.41 -10.49,-13.27 -33.61,-33.37 -69.53,-60.3 -53,-40.39 -87.14,-71.02 -102.79,-92.29 -22.76,-31.22 -34.15,-65.57 -34.15,-103.23 0,-41.17 12.81,-78.24 38.59,-111.42 25.79,-33.36 63.13,-49.95 111.86,-49.95 26.32,0 51.75,7.22 76.29,21.66 9.25,5.85 16.9,8.78 22.76,8.78 6.23,0 11.39,-1.56 15.12,-4.49 3.74,-2.92 9.78,-11.12 18.14,-24.78l18.14 0z"/>
    <path class="fil8" d="M4721.4 1626.11l0 -208.47 92.39 0c18.59,0 32.71,1.9 42.37,5.63 9.65,3.74 17.37,10.34 23.14,19.8 5.78,9.46 8.64,19.95 8.64,31.4 0,14.8 -4.8,27.27 -14.36,37.41 -9.56,10.14 -24.32,16.55 -44.31,19.31 7.33,3.5 12.86,6.99 16.65,10.39 8.05,7.38 15.67,16.65 22.8,27.76l36.06 56.77 -34.45 0 -27.57 -43.38c-8.01,-12.57 -14.65,-22.13 -19.84,-28.77 -5.25,-6.65 -9.9,-11.26 -14.03,-13.93 -4.07,-2.62 -8.3,-4.47 -12.57,-5.53 -3.1,-0.64 -8.2,-0.98 -15.33,-0.98l-31.93 0 0 92.59 -27.66 0zm27.66 -116.46l59.2 0c12.62,0 22.42,-1.31 29.5,-3.93 7.09,-2.57 12.48,-6.75 16.12,-12.52 3.68,-5.73 5.53,-11.94 5.53,-18.68 0,-9.85 -3.54,-18.01 -10.68,-24.36 -7.13,-6.36 -18.39,-9.51 -33.77,-9.51l-65.9 0 0 69z"/>
    <path class="fil9 str0" d="M4797.87 1318c111.82,0 202.47,90.65 202.47,202.47 0,111.82 -90.65,202.47 -202.47,202.47 -111.82,0 -202.47,-90.65 -202.47,-202.47 0,-111.82 90.65,-202.47 202.47,-202.47z"/>
   </g>
   <text x="9959.81" y="2302.77"  class="fil10 fnt0">Pegasus Licence</text>
  </g>
 </g>
</svg>
